<svg xmlns="http://www.w3.org/2000/svg" width="1360" height="180" viewBox="0 0 1360 180">
<defs><linearGradient id="g" gradientUnits="userSpaceOnUse" x1="0" y1="0" x2="0" y2="180"><stop offset="0" stop-color="#ff6a4a"/><stop offset="0.55" stop-color="#e8243a"/><stop offset="1" stop-color="#a50e2c"/></linearGradient></defs>
<g fill="url(#g)" shape-rendering="crispEdges">
<rect x="0" y="0" width="80" height="20"/>
<rect x="80" y="10" width="10" height="10"/>
<rect x="140" y="10" width="10" height="10"/>
<rect x="150" y="0" width="80" height="20"/>
<rect x="270" y="10" width="10" height="10"/>
<rect x="280" y="0" width="80" height="20"/>
<rect x="390" y="10" width="40" height="10"/>
<rect x="430" y="0" width="30" height="20"/>
<rect x="460" y="10" width="40" height="10"/>
<rect x="540" y="10" width="10" height="10"/>
<rect x="550" y="0" width="60" height="20"/>
<rect x="610" y="10" width="10" height="10"/>
<rect x="640" y="0" width="30" height="20"/>
<rect x="670" y="10" width="40" height="10"/>
<rect x="780" y="10" width="10" height="10"/>
<rect x="790" y="0" width="80" height="20"/>
<rect x="910" y="10" width="10" height="10"/>
<rect x="920" y="0" width="80" height="20"/>
<rect x="1020" y="10" width="10" height="10"/>
<rect x="1030" y="0" width="80" height="20"/>
<rect x="1150" y="10" width="10" height="10"/>
<rect x="1160" y="0" width="10" height="20"/>
<rect x="1210" y="0" width="10" height="20"/>
<rect x="1220" y="10" width="10" height="10"/>
<rect x="1270" y="10" width="10" height="10"/>
<rect x="1280" y="0" width="20" height="20"/>
<rect x="1330" y="10" width="10" height="10"/>
<rect x="0" y="20" width="30" height="20"/>
<rect x="60" y="20" width="10" height="10"/>
<rect x="70" y="20" width="30" height="20"/>
<rect x="130" y="20" width="30" height="20"/>
<rect x="200" y="20" width="30" height="20"/>
<rect x="260" y="20" width="30" height="20"/>
<rect x="330" y="20" width="30" height="20"/>
<rect x="370" y="30" width="10" height="10"/>
<rect x="380" y="20" width="20" height="20"/>
<rect x="400" y="20" width="30" height="10"/>
<rect x="430" y="20" width="30" height="20"/>
<rect x="460" y="20" width="30" height="10"/>
<rect x="490" y="20" width="20" height="20"/>
<rect x="510" y="30" width="10" height="10"/>
<rect x="530" y="20" width="30" height="20"/>
<rect x="600" y="20" width="30" height="20"/>
<rect x="640" y="20" width="30" height="20"/>
<rect x="670" y="20" width="30" height="10"/>
<rect x="700" y="20" width="20" height="20"/>
<rect x="720" y="30" width="10" height="10"/>
<rect x="770" y="20" width="30" height="20"/>
<rect x="840" y="20" width="30" height="20"/>
<rect x="900" y="20" width="30" height="20"/>
<rect x="970" y="20" width="30" height="20"/>
<rect x="1010" y="20" width="30" height="20"/>
<rect x="1080" y="20" width="30" height="20"/>
<rect x="1140" y="20" width="30" height="20"/>
<rect x="1210" y="20" width="30" height="20"/>
<rect x="1270" y="20" width="30" height="20"/>
<rect x="1330" y="20" width="20" height="20"/>
<rect x="1350" y="30" width="10" height="10"/>
<rect x="0" y="40" width="30" height="20"/>
<rect x="70" y="40" width="30" height="20"/>
<rect x="130" y="40" width="30" height="20"/>
<rect x="200" y="40" width="30" height="20"/>
<rect x="260" y="40" width="30" height="20"/>
<rect x="330" y="40" width="10" height="20"/>
<rect x="340" y="40" width="10" height="10"/>
<rect x="370" y="40" width="30" height="20"/>
<rect x="430" y="40" width="30" height="20"/>
<rect x="490" y="40" width="30" height="20"/>
<rect x="530" y="40" width="30" height="20"/>
<rect x="600" y="40" width="30" height="20"/>
<rect x="640" y="40" width="30" height="20"/>
<rect x="700" y="40" width="30" height="20"/>
<rect x="770" y="40" width="30" height="20"/>
<rect x="840" y="40" width="30" height="20"/>
<rect x="900" y="40" width="30" height="20"/>
<rect x="970" y="40" width="30" height="20"/>
<rect x="1010" y="40" width="30" height="20"/>
<rect x="1080" y="40" width="10" height="20"/>
<rect x="1090" y="40" width="10" height="10"/>
<rect x="1140" y="40" width="30" height="20"/>
<rect x="1210" y="40" width="30" height="20"/>
<rect x="1270" y="40" width="30" height="20"/>
<rect x="1300" y="50" width="30" height="10"/>
<rect x="1330" y="40" width="30" height="20"/>
<rect x="0" y="60" width="30" height="20"/>
<rect x="70" y="60" width="30" height="20"/>
<rect x="130" y="60" width="30" height="20"/>
<rect x="200" y="60" width="30" height="20"/>
<rect x="250" y="70" width="10" height="10"/>
<rect x="260" y="60" width="30" height="20"/>
<rect x="290" y="70" width="30" height="10"/>
<rect x="370" y="60" width="30" height="20"/>
<rect x="430" y="60" width="30" height="20"/>
<rect x="490" y="60" width="30" height="20"/>
<rect x="530" y="60" width="30" height="20"/>
<rect x="600" y="60" width="30" height="20"/>
<rect x="640" y="60" width="30" height="20"/>
<rect x="700" y="60" width="30" height="20"/>
<rect x="770" y="60" width="30" height="20"/>
<rect x="840" y="60" width="30" height="20"/>
<rect x="890" y="70" width="10" height="10"/>
<rect x="900" y="60" width="30" height="20"/>
<rect x="930" y="70" width="40" height="10"/>
<rect x="970" y="60" width="20" height="20"/>
<rect x="990" y="60" width="10" height="10"/>
<rect x="1010" y="60" width="30" height="20"/>
<rect x="1130" y="70" width="10" height="10"/>
<rect x="1140" y="60" width="30" height="20"/>
<rect x="1170" y="70" width="40" height="10"/>
<rect x="1210" y="60" width="30" height="20"/>
<rect x="1240" y="70" width="20" height="10"/>
<rect x="1270" y="60" width="60" height="10"/>
<rect x="1330" y="60" width="30" height="20"/>
<rect x="0" y="80" width="30" height="20"/>
<rect x="70" y="80" width="30" height="20"/>
<rect x="110" y="80" width="10" height="10"/>
<rect x="120" y="80" width="110" height="20"/>
<rect x="240" y="80" width="20" height="10"/>
<rect x="260" y="80" width="30" height="20"/>
<rect x="290" y="80" width="30" height="10"/>
<rect x="370" y="80" width="30" height="20"/>
<rect x="430" y="80" width="30" height="20"/>
<rect x="490" y="80" width="30" height="20"/>
<rect x="530" y="80" width="30" height="20"/>
<rect x="600" y="80" width="30" height="20"/>
<rect x="640" y="80" width="30" height="20"/>
<rect x="700" y="80" width="30" height="20"/>
<rect x="750" y="80" width="10" height="10"/>
<rect x="760" y="80" width="110" height="20"/>
<rect x="880" y="80" width="20" height="10"/>
<rect x="900" y="80" width="30" height="20"/>
<rect x="930" y="80" width="50" height="10"/>
<rect x="1010" y="80" width="30" height="20"/>
<rect x="1120" y="80" width="20" height="10"/>
<rect x="1140" y="80" width="30" height="20"/>
<rect x="1170" y="80" width="40" height="10"/>
<rect x="1210" y="80" width="30" height="20"/>
<rect x="1240" y="80" width="10" height="10"/>
<rect x="1270" y="90" width="10" height="10"/>
<rect x="1280" y="80" width="20" height="20"/>
<rect x="1330" y="80" width="30" height="20"/>
<rect x="0" y="100" width="30" height="20"/>
<rect x="70" y="100" width="30" height="20"/>
<rect x="130" y="100" width="30" height="20"/>
<rect x="200" y="100" width="30" height="20"/>
<rect x="260" y="100" width="30" height="20"/>
<rect x="330" y="100" width="10" height="20"/>
<rect x="340" y="110" width="10" height="10"/>
<rect x="370" y="100" width="30" height="20"/>
<rect x="430" y="100" width="30" height="20"/>
<rect x="490" y="100" width="30" height="20"/>
<rect x="530" y="100" width="30" height="20"/>
<rect x="600" y="100" width="30" height="20"/>
<rect x="640" y="100" width="30" height="20"/>
<rect x="700" y="100" width="30" height="20"/>
<rect x="770" y="100" width="30" height="20"/>
<rect x="840" y="100" width="30" height="20"/>
<rect x="880" y="100" width="10" height="10"/>
<rect x="890" y="100" width="110" height="20"/>
<rect x="1010" y="100" width="30" height="20"/>
<rect x="1080" y="100" width="10" height="20"/>
<rect x="1090" y="110" width="10" height="10"/>
<rect x="1140" y="100" width="30" height="20"/>
<rect x="1210" y="100" width="30" height="20"/>
<rect x="1270" y="100" width="30" height="20"/>
<rect x="1330" y="100" width="30" height="20"/>
<rect x="0" y="120" width="30" height="20"/>
<rect x="60" y="130" width="10" height="10"/>
<rect x="70" y="120" width="30" height="20"/>
<rect x="130" y="120" width="30" height="20"/>
<rect x="200" y="120" width="30" height="20"/>
<rect x="260" y="120" width="30" height="20"/>
<rect x="330" y="120" width="30" height="20"/>
<rect x="370" y="120" width="30" height="20"/>
<rect x="430" y="120" width="30" height="20"/>
<rect x="490" y="120" width="30" height="20"/>
<rect x="530" y="120" width="30" height="20"/>
<rect x="600" y="120" width="30" height="20"/>
<rect x="640" y="120" width="30" height="20"/>
<rect x="700" y="120" width="30" height="20"/>
<rect x="770" y="120" width="30" height="20"/>
<rect x="840" y="120" width="30" height="20"/>
<rect x="900" y="120" width="30" height="20"/>
<rect x="970" y="120" width="30" height="20"/>
<rect x="1010" y="120" width="30" height="20"/>
<rect x="1080" y="120" width="30" height="20"/>
<rect x="1140" y="120" width="30" height="20"/>
<rect x="1210" y="120" width="30" height="20"/>
<rect x="1270" y="120" width="30" height="20"/>
<rect x="1330" y="120" width="30" height="20"/>
<rect x="0" y="140" width="80" height="20"/>
<rect x="80" y="140" width="10" height="10"/>
<rect x="130" y="140" width="30" height="20"/>
<rect x="200" y="140" width="10" height="20"/>
<rect x="210" y="140" width="10" height="10"/>
<rect x="260" y="140" width="100" height="20"/>
<rect x="380" y="140" width="10" height="10"/>
<rect x="390" y="140" width="10" height="20"/>
<rect x="430" y="140" width="30" height="20"/>
<rect x="490" y="140" width="10" height="20"/>
<rect x="500" y="140" width="10" height="10"/>
<rect x="540" y="140" width="10" height="10"/>
<rect x="550" y="140" width="60" height="20"/>
<rect x="610" y="140" width="10" height="10"/>
<rect x="650" y="140" width="10" height="10"/>
<rect x="660" y="140" width="10" height="20"/>
<rect x="700" y="140" width="10" height="20"/>
<rect x="710" y="140" width="10" height="10"/>
<rect x="770" y="140" width="30" height="20"/>
<rect x="840" y="140" width="10" height="20"/>
<rect x="850" y="140" width="10" height="10"/>
<rect x="900" y="140" width="30" height="20"/>
<rect x="970" y="140" width="30" height="20"/>
<rect x="1010" y="140" width="80" height="20"/>
<rect x="1090" y="140" width="10" height="10"/>
<rect x="1140" y="140" width="30" height="20"/>
<rect x="1210" y="140" width="10" height="20"/>
<rect x="1220" y="140" width="10" height="10"/>
<rect x="1280" y="140" width="10" height="10"/>
<rect x="1290" y="140" width="50" height="20"/>
<rect x="1340" y="140" width="10" height="10"/>
<rect x="900" y="160" width="30" height="20"/>
<rect x="970" y="160" width="30" height="20"/>
</g>
</svg>
